<mxfile host="app.diagrams.net" modified="2021-07-18T11:35:03.023Z" agent="5.0 (Windows NT 10.0; Win64; x64) AppleWebKit/537.36 (KHTML, like Gecko) Chrome/91.0.4472.114 Safari/537.36" etag="HeJ_dLPa7M5W3W8mt-tq" version="14.9.0" type="github">
  <diagram id="vMXatDMKksR-8hQCcmED" name="Page-1">
    <mxGraphModel dx="1099" dy="719" grid="1" gridSize="10" guides="1" tooltips="1" connect="1" arrows="1" fold="1" page="1" pageScale="1" pageWidth="827" pageHeight="1169" math="0" shadow="0">
      <root>
        <mxCell id="0" />
        <mxCell id="1" parent="0" />
        <mxCell id="aOyp_Q3LnuSCx48vsyEH-1" value="&lt;b&gt;&lt;font style=&quot;font-size: 18px&quot;&gt;サーバー出口&lt;/font&gt;&lt;/b&gt;&lt;br&gt;(us-east1)" style="rounded=0;whiteSpace=wrap;html=1;strokeWidth=2;" parent="1" vertex="1">
          <mxGeometry x="210" y="200" width="120" height="60" as="geometry" />
        </mxCell>
        <mxCell id="aOyp_Q3LnuSCx48vsyEH-3" value="&lt;b&gt;&lt;font style=&quot;font-size: 21px&quot;&gt;サーバー&lt;/font&gt;&lt;/b&gt;&lt;br&gt;(always-free)" style="rounded=0;whiteSpace=wrap;html=1;strokeWidth=2;" parent="1" vertex="1">
          <mxGeometry x="210" y="320" width="120" height="60" as="geometry" />
        </mxCell>
        <mxCell id="l2mJPqvnnT8NB2ULo5Gj-1" value="" style="endArrow=none;html=1;exitX=0.5;exitY=1;exitDx=0;exitDy=0;entryX=0.5;entryY=0;entryDx=0;entryDy=0;strokeWidth=2;" parent="1" source="aOyp_Q3LnuSCx48vsyEH-1" target="aOyp_Q3LnuSCx48vsyEH-3" edge="1">
          <mxGeometry width="50" height="50" relative="1" as="geometry">
            <mxPoint x="245" y="250" as="sourcePoint" />
            <mxPoint x="300" y="290" as="targetPoint" />
          </mxGeometry>
        </mxCell>
        <mxCell id="l2mJPqvnnT8NB2ULo5Gj-5" value="&lt;b&gt;&lt;font style=&quot;font-size: 20px&quot;&gt;インターネット&lt;/font&gt;&lt;/b&gt;" style="ellipse;shape=cloud;whiteSpace=wrap;html=1;strokeWidth=2;" parent="1" vertex="1">
          <mxGeometry x="280" y="50" width="280" height="90" as="geometry" />
        </mxCell>
        <mxCell id="l2mJPqvnnT8NB2ULo5Gj-7" value="" style="endArrow=none;html=1;entryX=0.429;entryY=0.969;entryDx=0;entryDy=0;entryPerimeter=0;exitX=0.5;exitY=0;exitDx=0;exitDy=0;strokeWidth=2;" parent="1" source="aOyp_Q3LnuSCx48vsyEH-1" target="l2mJPqvnnT8NB2ULo5Gj-5" edge="1">
          <mxGeometry width="50" height="50" relative="1" as="geometry">
            <mxPoint x="390" y="370" as="sourcePoint" />
            <mxPoint x="440" y="320" as="targetPoint" />
          </mxGeometry>
        </mxCell>
        <mxCell id="l2mJPqvnnT8NB2ULo5Gj-6" value="&lt;b&gt;&lt;font style=&quot;font-size: 19px&quot;&gt;出口ノード&lt;/font&gt;&lt;/b&gt;&lt;br&gt;(HIU)" style="rounded=0;whiteSpace=wrap;html=1;strokeWidth=2;" parent="1" vertex="1">
          <mxGeometry x="530" y="200" width="120" height="60" as="geometry" />
        </mxCell>
        <mxCell id="l2mJPqvnnT8NB2ULo5Gj-8" value="" style="endArrow=none;html=1;entryX=0.622;entryY=0.969;entryDx=0;entryDy=0;entryPerimeter=0;exitX=0.5;exitY=0;exitDx=0;exitDy=0;strokeWidth=2;" parent="1" source="l2mJPqvnnT8NB2ULo5Gj-6" target="l2mJPqvnnT8NB2ULo5Gj-5" edge="1">
          <mxGeometry width="50" height="50" relative="1" as="geometry">
            <mxPoint x="390" y="370" as="sourcePoint" />
            <mxPoint x="440" y="320" as="targetPoint" />
          </mxGeometry>
        </mxCell>
        <mxCell id="l2mJPqvnnT8NB2ULo5Gj-9" value="&lt;b&gt;&lt;font style=&quot;font-size: 17px&quot;&gt;クライアント&lt;/font&gt;&lt;/b&gt;&lt;br&gt;(my PC)" style="rounded=0;whiteSpace=wrap;html=1;strokeWidth=2;" parent="1" vertex="1">
          <mxGeometry x="530" y="320" width="120" height="60" as="geometry" />
        </mxCell>
        <mxCell id="l2mJPqvnnT8NB2ULo5Gj-10" value="" style="endArrow=none;html=1;entryX=0.5;entryY=1;entryDx=0;entryDy=0;strokeWidth=2;" parent="1" source="l2mJPqvnnT8NB2ULo5Gj-9" target="l2mJPqvnnT8NB2ULo5Gj-6" edge="1">
          <mxGeometry width="50" height="50" relative="1" as="geometry">
            <mxPoint x="390" y="370" as="sourcePoint" />
            <mxPoint x="440" y="320" as="targetPoint" />
          </mxGeometry>
        </mxCell>
        <mxCell id="l2mJPqvnnT8NB2ULo5Gj-11" value="&lt;b style=&quot;font-size: 20px&quot;&gt;Twitter&lt;br&gt;server&lt;/b&gt;" style="rounded=0;whiteSpace=wrap;html=1;strokeWidth=2;" parent="1" vertex="1">
          <mxGeometry x="370" y="200" width="120" height="60" as="geometry" />
        </mxCell>
        <mxCell id="l2mJPqvnnT8NB2ULo5Gj-12" value="" style="endArrow=none;html=1;entryX=0.5;entryY=0;entryDx=0;entryDy=0;exitX=0.55;exitY=0.95;exitDx=0;exitDy=0;exitPerimeter=0;strokeWidth=2;" parent="1" source="l2mJPqvnnT8NB2ULo5Gj-5" target="l2mJPqvnnT8NB2ULo5Gj-11" edge="1">
          <mxGeometry width="50" height="50" relative="1" as="geometry">
            <mxPoint x="420" y="180" as="sourcePoint" />
            <mxPoint x="440" y="320" as="targetPoint" />
          </mxGeometry>
        </mxCell>
        <mxCell id="TNFHcOoN56tg1DQ0fnb9-1" value="" style="endArrow=classic;html=1;entryX=0.835;entryY=1.054;entryDx=0;entryDy=0;entryPerimeter=0;startArrow=cross;startFill=0;sourcePerimeterSpacing=0;strokeWidth=2;" edge="1" parent="1" target="l2mJPqvnnT8NB2ULo5Gj-6">
          <mxGeometry width="50" height="50" relative="1" as="geometry">
            <mxPoint x="630" y="300" as="sourcePoint" />
            <mxPoint x="630" y="260" as="targetPoint" />
            <Array as="points" />
          </mxGeometry>
        </mxCell>
        <mxCell id="TNFHcOoN56tg1DQ0fnb9-3" value="" style="curved=1;endArrow=classic;html=1;shape=flexArrow;strokeWidth=2;gradientColor=#7ea6e0;fillColor=#dae8fc;strokeColor=#6c8ebf;endWidth=24;endSize=9.58;" edge="1" parent="1">
          <mxGeometry width="50" height="50" relative="1" as="geometry">
            <mxPoint x="530" y="318" as="sourcePoint" />
            <mxPoint x="210" y="318" as="targetPoint" />
            <Array as="points">
              <mxPoint x="530" y="120" />
              <mxPoint x="210" y="120" />
            </Array>
          </mxGeometry>
        </mxCell>
        <mxCell id="TNFHcOoN56tg1DQ0fnb9-2" value="deny GET twitter.com" style="shape=callout;whiteSpace=wrap;html=1;perimeter=calloutPerimeter;position2=0.6;size=20;position=0.32;flipH=0;flipV=0;direction=south;base=32;strokeWidth=2;" vertex="1" parent="1">
          <mxGeometry x="662" y="261" width="180" height="60" as="geometry" />
        </mxCell>
        <mxCell id="TNFHcOoN56tg1DQ0fnb9-4" value="&lt;b&gt;&lt;font style=&quot;font-size: 20px&quot;&gt;IPsec/L2TP&lt;/font&gt;&lt;/b&gt;" style="endArrow=none;html=1;exitX=1;exitY=0.5;exitDx=0;exitDy=0;entryX=0;entryY=0.5;entryDx=0;entryDy=0;shape=link;strokeWidth=3;gradientColor=#ffd966;fillColor=#fff2cc;strokeColor=#d6b656;shadow=0;" edge="1" parent="1" source="aOyp_Q3LnuSCx48vsyEH-3" target="l2mJPqvnnT8NB2ULo5Gj-9">
          <mxGeometry width="50" height="50" relative="1" as="geometry">
            <mxPoint x="405" y="375" as="sourcePoint" />
            <mxPoint x="455" y="325" as="targetPoint" />
          </mxGeometry>
        </mxCell>
        <mxCell id="TNFHcOoN56tg1DQ0fnb9-7" value="" style="endArrow=none;html=1;shadow=0;sourcePerimeterSpacing=0;strokeWidth=2;exitX=0.835;exitY=-0.079;exitDx=0;exitDy=0;exitPerimeter=0;" edge="1" parent="1" source="l2mJPqvnnT8NB2ULo5Gj-9">
          <mxGeometry width="50" height="50" relative="1" as="geometry">
            <mxPoint x="630" y="316" as="sourcePoint" />
            <mxPoint x="630" y="300" as="targetPoint" />
          </mxGeometry>
        </mxCell>
        <mxCell id="TNFHcOoN56tg1DQ0fnb9-10" value="Virtual Private Network&lt;br&gt;見掛け上は同じネットワーク" style="shape=callout;whiteSpace=wrap;html=1;perimeter=calloutPerimeter;strokeWidth=2;flipH=0;flipV=1;position2=0.88;size=30;position=0.53;" vertex="1" parent="1">
          <mxGeometry x="240" y="380" width="170" height="100" as="geometry" />
        </mxCell>
        <mxCell id="TNFHcOoN56tg1DQ0fnb9-12" value="" style="endArrow=classic;html=1;shadow=0;sourcePerimeterSpacing=0;strokeColor=#b85450;strokeWidth=2;gradientColor=#ea6b66;fillColor=#f8cecc;shape=flexArrow;" edge="1" parent="1">
          <mxGeometry width="50" height="50" relative="1" as="geometry">
            <mxPoint x="520" y="330" as="sourcePoint" />
            <mxPoint x="330" y="330" as="targetPoint" />
          </mxGeometry>
        </mxCell>
        <mxCell id="TNFHcOoN56tg1DQ0fnb9-13" value="&lt;b&gt;&lt;font style=&quot;font-size: 18px&quot;&gt;見かけ上経路&lt;/font&gt;&lt;/b&gt;" style="shape=callout;whiteSpace=wrap;html=1;perimeter=calloutPerimeter;strokeWidth=2;flipV=1;position2=0.17;size=80;position=0.17;base=20;gradientColor=#ea6b66;fillColor=#f8cecc;strokeColor=#b85450;" vertex="1" parent="1">
          <mxGeometry x="480" y="350" width="120" height="150" as="geometry" />
        </mxCell>
        <mxCell id="TNFHcOoN56tg1DQ0fnb9-14" value="&lt;b&gt;&lt;font style=&quot;font-size: 24px&quot;&gt;実際の経路&lt;/font&gt;&lt;/b&gt;" style="shape=callout;whiteSpace=wrap;html=1;perimeter=calloutPerimeter;strokeWidth=2;direction=south;size=70;position=0.5;position2=0.75;gradientColor=#7ea6e0;fillColor=#dae8fc;strokeColor=#6c8ebf;" vertex="1" parent="1">
          <mxGeometry x="560" y="110" width="250" height="70" as="geometry" />
        </mxCell>
      </root>
    </mxGraphModel>
  </diagram>
</mxfile>
